<svg width="455" height="164" viewBox="0 0 455 164" fill="none" xmlns="http://www.w3.org/2000/svg">
<rect width="455" height="164" fill="#E5E5E5"/>
<path d="M40.9375 65.75C40.6771 69.0312 40.1562 72.3385 39.375 75.6719C38.5938 78.9531 37.6042 82.1302 36.4062 85.2031C35.2604 88.276 33.9062 91.1406 32.3438 93.7969C30.7812 96.5052 29.0365 98.849 27.1094 100.828C25.2344 102.807 23.2031 104.37 21.0156 105.516C18.8802 106.661 16.6406 107.234 14.2969 107.234C13.8281 107.234 13.099 107.13 12.1094 106.922C11.1719 106.766 10.1562 106.349 9.0625 105.672C7.96875 105.047 6.84896 104.109 5.70312 102.859C4.60938 101.609 3.64583 99.9167 2.8125 97.7812C1.97917 95.6979 1.38021 93.0938 1.01562 89.9688C0.651042 86.8438 0.651042 83.0677 1.01562 78.6406C1.64062 71.6615 2.91667 65.3333 4.84375 59.6562C6.82292 53.9271 9.0625 49.0312 11.5625 44.9688C14.1146 40.9062 16.7448 37.7812 19.4531 35.5938C22.1615 33.3542 24.5573 32.2344 26.6406 32.2344C27.474 32.2344 28.151 32.4167 28.6719 32.7812C29.2448 33.0938 29.6875 33.5104 30 34.0312C30.3646 33.9271 30.7812 33.849 31.25 33.7969C31.7188 33.7448 32.2396 33.7188 32.8125 33.7188C34.3229 33.7188 35.651 34.5 36.7969 36.0625C37.9948 37.625 38.9583 39.8125 39.6875 42.625C40.4688 45.4375 40.9635 48.8229 41.1719 52.7812C41.4323 56.6875 41.3542 61.0104 40.9375 65.75ZM14.5312 102.703C16.5625 102.703 18.6458 101.661 20.7812 99.5781C22.9167 97.4948 24.8958 94.6823 26.7188 91.1406C28.5417 87.5469 30.1042 83.3802 31.4062 78.6406C32.7083 73.901 33.5938 68.875 34.0625 63.5625C34.1667 62.1562 34.2448 60.5417 34.2969 58.7188C34.349 56.8958 34.349 55.0469 34.2969 53.1719C34.2448 51.2969 34.1146 49.4479 33.9062 47.625C33.75 45.75 33.5156 44.1094 33.2031 42.7031C32.8906 41.2969 32.5 40.151 32.0312 39.2656C31.5625 38.3802 31.0156 37.9375 30.3906 37.9375C29.7135 37.9896 29.0365 38.1979 28.3594 38.5625C27.7865 38.875 27.1094 39.3958 26.3281 40.125C25.599 40.8021 24.8698 41.7656 24.1406 43.0156C23.9844 42.9115 23.8542 42.7552 23.75 42.5469C23.6979 42.3385 23.6198 42.1302 23.5156 41.9219C23.4115 41.7135 23.3333 41.4792 23.2812 41.2188C23.1771 41.0625 23.125 40.8802 23.125 40.6719C23.125 40.4115 23.099 40.125 23.0469 39.8125C22.0052 40.9583 20.7552 42.599 19.2969 44.7344C17.8906 46.8177 16.4583 49.4219 15 52.5469C13.5938 55.6719 12.2917 59.3698 11.0938 63.6406C9.94792 67.8594 9.14062 72.6771 8.67188 78.0938C8.25521 82.8854 8.15104 86.8698 8.35938 90.0469C8.56771 93.224 8.95833 95.75 9.53125 97.625C10.1562 99.5 10.9115 100.802 11.7969 101.531C12.6823 102.312 13.5938 102.703 14.5312 102.703ZM68.5938 93.9531C67.3958 93.9531 66.3542 93.7188 65.4688 93.25C64.6354 92.8333 63.9583 92.2604 63.4375 91.5312C62.9167 90.8021 62.5781 89.9688 62.4219 89.0312C62.2656 88.0417 62.3177 87 62.5781 85.9062C62.7344 85.1771 62.9948 84.2135 63.3594 83.0156C63.724 81.7656 64.0885 80.4375 64.4531 79.0312C64.8698 77.5729 65.2344 76.1406 65.5469 74.7344C65.9115 73.276 66.1458 71.974 66.25 70.8281C66.3542 69.6302 66.3021 68.6667 66.0938 67.9375C65.8854 67.1562 65.4427 66.7656 64.7656 66.7656C63.9323 66.7656 63.0729 67.0521 62.1875 67.625C61.3021 68.1458 60.3906 68.875 59.4531 69.8125C58.5677 70.75 57.6562 71.8438 56.7188 73.0938C55.8333 74.2917 54.9479 75.5417 54.0625 76.8438C53.5938 78.6146 53.2031 80.1771 52.8906 81.5312C52.5781 82.8333 52.2917 84.0312 52.0312 85.125C51.8229 86.1667 51.6146 87.1042 51.4062 87.9375C51.1979 88.7188 51.0156 89.474 50.8594 90.2031C50.7031 90.724 50.2344 91.2448 49.4531 91.7656C48.6719 92.2344 47.8385 92.625 46.9531 92.9375C46.0677 93.25 45.3125 93.4062 44.6875 93.4062C44.0104 93.4062 43.724 93.1719 43.8281 92.7031C43.8802 92.3906 44.0625 91.6875 44.375 90.5938C44.6354 89.5 44.974 88.224 45.3906 86.7656C45.7552 85.2552 46.1458 83.6667 46.5625 82C46.9792 80.3333 47.3698 78.7448 47.7344 77.2344C47.9948 76.0365 48.2812 74.7083 48.5938 73.25C48.8542 72 49.1667 70.5417 49.5312 68.875C49.9479 67.2083 50.4167 65.3854 50.9375 63.4062C51.3021 63.0938 51.6667 62.8594 52.0312 62.7031C52.4479 62.4948 52.8646 62.3385 53.2812 62.2344C53.6979 62.0781 54.1406 61.974 54.6094 61.9219C55.026 61.9219 55.4427 61.9479 55.8594 62C56.224 62.0521 56.5885 62.1562 56.9531 62.3125C57.3698 62.4167 57.7344 62.599 58.0469 62.8594C57.8906 63.224 57.7083 63.7448 57.5 64.4219C57.2917 65.0469 57.0833 65.724 56.875 66.4531C56.6667 67.2865 56.4062 68.1458 56.0938 69.0312C56.7708 68.0938 57.526 67.1562 58.3594 66.2188C59.2448 65.2292 60.1823 64.3438 61.1719 63.5625C62.2135 62.7812 63.3073 62.1562 64.4531 61.6875C65.599 61.1667 66.7708 60.9062 67.9688 60.9062C68.9583 60.9062 69.8438 61.1927 70.625 61.7656C71.4062 62.3385 72.0052 63.1458 72.4219 64.1875C72.8906 65.1771 73.151 66.375 73.2031 67.7812C73.3073 69.1875 73.125 70.724 72.6562 72.3906L71.7969 75.8281C71.5365 76.9219 71.1979 78.224 70.7812 79.7344C70.4167 81.1927 69.9479 82.8073 69.375 84.5781C69.0625 85.724 68.9323 86.7135 68.9844 87.5469C69.0885 88.3802 69.6094 88.7969 70.5469 88.7969C71.4844 88.7969 72.6562 88.224 74.0625 87.0781C75.5208 85.9323 76.9792 84.5521 78.4375 82.9375C79.8958 81.3229 81.276 79.6823 82.5781 78.0156C83.8802 76.2969 84.8698 74.9167 85.5469 73.875C86.0156 73.1979 86.4583 72.7552 86.875 72.5469C87.2917 72.3385 87.6042 72.3125 87.8125 72.4688C88.0729 72.625 88.2031 72.9896 88.2031 73.5625C88.2031 74.0833 87.9948 74.7604 87.5781 75.5938C87.2135 76.3229 86.6406 77.2865 85.8594 78.4844C85.1302 79.6823 84.2448 80.9583 83.2031 82.3125C82.1615 83.6667 81.0417 85.0469 79.8438 86.4531C78.6458 87.8073 77.3958 89.0573 76.0938 90.2031C74.7917 91.2969 73.4896 92.1823 72.1875 92.8594C70.9375 93.5885 69.7396 93.9531 68.5938 93.9531ZM133.594 72.2344C133.802 71.9219 134.062 71.7396 134.375 71.6875C134.74 71.5833 135.026 71.6094 135.234 71.7656C135.443 71.9219 135.547 72.1823 135.547 72.5469C135.599 72.9115 135.469 73.4062 135.156 74.0312C134.115 76.0104 132.734 78.1458 131.016 80.4375C129.349 82.7292 127.578 84.8906 125.703 86.9219C123.828 88.901 122.005 90.5417 120.234 91.8438C118.464 93.1458 116.979 93.7969 115.781 93.7969C114.062 93.7969 112.63 93.4583 111.484 92.7812C110.339 92.1042 109.427 91.2708 108.75 90.2812C108.125 89.2917 107.682 88.224 107.422 87.0781C107.161 85.8802 107.083 84.7865 107.188 83.7969C107.24 82.9635 107.422 81.4792 107.734 79.3438C108.047 77.1562 108.464 74.6562 108.984 71.8438C109.505 68.9792 110.078 65.9323 110.703 62.7031C111.38 59.4219 112.083 56.2708 112.812 53.25C111.927 53.3542 111.042 53.4583 110.156 53.5625C109.271 53.6667 108.464 53.7188 107.734 53.7188C106.068 53.7188 104.505 53.5365 103.047 53.1719C101.536 52.7552 100.417 52.3646 99.6875 52C99.2708 51.7917 99.0885 51.5052 99.1406 51.1406C99.1927 50.724 99.349 50.3333 99.6094 49.9688C99.8698 49.5521 100.208 49.2135 100.625 48.9531C100.99 48.6406 101.328 48.4844 101.641 48.4844C102.63 48.5885 103.698 48.6927 104.844 48.7969C105.99 48.849 107.24 48.849 108.594 48.7969C109.583 48.7448 110.521 48.6667 111.406 48.5625C112.344 48.4583 113.255 48.3281 114.141 48.1719C114.818 45.6719 115.469 43.5104 116.094 41.6875C116.771 39.8125 117.37 38.5104 117.891 37.7812C118.047 37.5208 118.385 37.3125 118.906 37.1562C119.479 36.9479 120.078 36.8177 120.703 36.7656C121.328 36.6615 121.927 36.6615 122.5 36.7656C123.073 36.8177 123.49 37 123.75 37.3125C124.01 37.7292 124.115 38.7969 124.062 40.5156C124.01 42.2344 123.724 44.4219 123.203 47.0781C125.391 47.0781 127.318 47.2083 128.984 47.4688C130.703 47.6771 132.161 47.9375 133.359 48.25C134.557 48.5104 135.521 48.7969 136.25 49.1094C136.979 49.3698 137.526 49.5521 137.891 49.6562C138.255 49.7604 138.438 50.0208 138.438 50.4375C138.49 50.8542 138.411 51.2969 138.203 51.7656C138.047 52.1823 137.76 52.5469 137.344 52.8594C136.927 53.1719 136.458 53.276 135.938 53.1719C135.417 53.1198 134.818 53.0156 134.141 52.8594C133.516 52.7031 132.734 52.5729 131.797 52.4688C130.911 52.3646 129.844 52.2604 128.594 52.1562C127.344 52.0521 125.885 52 124.219 52C123.906 52 123.542 52.026 123.125 52.0781C122.76 52.0781 122.37 52.0781 121.953 52.0781C121.745 52.9115 121.536 53.7448 121.328 54.5781C121.172 55.3594 120.938 56.1927 120.625 57.0781C119.948 59.1615 119.167 61.4271 118.281 63.875C117.5 66.0104 116.562 68.4583 115.469 71.2188C114.375 73.9792 113.151 76.9219 111.797 80.0469C111.484 82.2865 111.51 84.0052 111.875 85.2031C112.292 86.349 112.786 87.1823 113.359 87.7031C114.036 88.276 114.87 88.5885 115.859 88.6406C116.641 88.7448 117.578 88.4844 118.672 87.8594C119.818 87.1823 120.99 86.2969 122.188 85.2031C123.385 84.1094 124.583 82.9115 125.781 81.6094C127.031 80.3073 128.177 79.0312 129.219 77.7812C130.26 76.5312 131.172 75.4115 131.953 74.4219C132.734 73.3802 133.281 72.651 133.594 72.2344ZM169.219 74.8125C169.583 74.3958 169.948 74.1875 170.312 74.1875C170.729 74.1354 171.042 74.2396 171.25 74.5C171.51 74.7083 171.615 75.0469 171.562 75.5156C171.562 75.9844 171.354 76.5052 170.938 77.0781C169.948 78.4323 168.802 79.8385 167.5 81.2969C166.198 82.7031 164.792 84.0833 163.281 85.4375C161.823 86.7917 160.339 88.0677 158.828 89.2656C157.318 90.4635 155.859 91.4531 154.453 92.2344C152.891 93.1198 151.562 93.5625 150.469 93.5625C149.427 93.5625 148.385 92.8854 147.344 91.5312C146.406 90.3333 145.938 89.0573 145.938 87.7031C145.99 86.2969 146.302 84.5521 146.875 82.4688C147.24 81.1667 147.734 79.6302 148.359 77.8594C149.036 76.0365 149.557 74.2917 149.922 72.625C150.339 70.9583 150.469 69.5521 150.312 68.4062C150.156 67.2083 149.479 66.6094 148.281 66.6094C147.448 66.6094 146.536 66.8958 145.547 67.4688C144.609 68.0417 143.646 68.7969 142.656 69.7344C141.719 70.6198 140.807 71.6354 139.922 72.7812C139.036 73.9271 138.255 75.0469 137.578 76.1406C137.161 78.1719 136.745 80.1771 136.328 82.1562C135.964 83.8229 135.573 85.6458 135.156 87.625C134.792 89.5521 134.427 91.2708 134.062 92.7812C133.75 93.0417 133.411 93.224 133.047 93.3281C132.682 93.4323 132.344 93.4844 132.031 93.4844C131.667 93.4844 131.302 93.4583 130.938 93.4062C130.521 93.3021 130.13 93.1458 129.766 92.9375C129.453 92.7292 129.141 92.4427 128.828 92.0781C128.516 91.7656 128.281 91.3229 128.125 90.75C130.469 81.1146 132.318 73.3802 133.672 67.5469C135.026 61.7135 136.068 57.2604 136.797 54.1875C137.63 50.5417 138.203 48.0156 138.516 46.6094C138.672 45.6198 138.802 44.6562 138.906 43.7188C139.01 42.8854 139.062 42.026 139.062 41.1406C139.062 40.2552 138.984 39.4479 138.828 38.7188C139.245 38.4583 139.688 38.25 140.156 38.0938C140.677 37.9375 141.172 37.8073 141.641 37.7031C142.214 37.5469 142.786 37.4167 143.359 37.3125C143.932 37.2083 144.453 37.1562 144.922 37.1562C145.339 37.1562 145.729 37.2083 146.094 37.3125C146.458 37.3646 146.693 37.5208 146.797 37.7812C147.109 38.0417 147.24 38.5625 147.188 39.3438C147.188 40.125 147.135 40.9323 147.031 41.7656C146.823 42.7552 146.589 43.8229 146.328 44.9688C145.234 49.1875 144.01 53.3021 142.656 57.3125C141.302 61.2708 140.052 65.5156 138.906 70.0469C139.583 69.0052 140.391 67.9375 141.328 66.8438C142.266 65.75 143.281 64.7604 144.375 63.875C145.521 62.9375 146.719 62.1823 147.969 61.6094C149.219 60.9844 150.547 60.6719 151.953 60.6719C152.682 60.6719 153.359 60.8021 153.984 61.0625C154.661 61.2708 155.234 61.6615 155.703 62.2344C156.224 62.7552 156.615 63.4844 156.875 64.4219C157.135 65.3073 157.24 66.4271 157.188 67.7812C157.188 68.6146 157.083 69.474 156.875 70.3594C156.719 71.2448 156.484 72.2344 156.172 73.3281C155.859 74.3698 155.443 75.5417 154.922 76.8438C154.453 78.1458 153.88 79.6562 153.203 81.375C152.734 82.5729 152.37 83.5885 152.109 84.4219C151.849 85.2552 151.901 85.9844 152.266 86.6094C152.734 87.4427 153.646 87.651 155 87.2344C156.406 86.7656 158.49 85.4115 161.25 83.1719C161.875 82.651 162.578 82 163.359 81.2188C164.141 80.4375 164.896 79.6562 165.625 78.875C166.354 78.0417 167.031 77.2604 167.656 76.5312C168.281 75.8021 168.802 75.2292 169.219 74.8125ZM201.562 75.75C200 78.0417 198.229 80.2812 196.25 82.4688C194.271 84.6042 192.161 86.5312 189.922 88.25C187.734 89.9167 185.469 91.2708 183.125 92.3125C180.833 93.3542 178.594 93.875 176.406 93.875C175.26 93.875 174.01 93.5885 172.656 93.0156C171.354 92.4948 170.156 91.6615 169.062 90.5156C167.969 89.3698 167.083 87.8854 166.406 86.0625C165.781 84.2396 165.599 82.026 165.859 79.4219C166.068 77.2865 166.719 75.0469 167.812 72.7031C168.958 70.3073 170.339 68.1198 171.953 66.1406C173.62 64.1615 175.469 62.5208 177.5 61.2188C179.583 59.9167 181.667 59.2656 183.75 59.2656C185.729 59.2656 187.161 59.7604 188.047 60.75C188.932 61.7396 189.323 62.9635 189.219 64.4219C189.062 66.0365 188.594 67.5208 187.812 68.875C187.083 70.2292 186.198 71.4531 185.156 72.5469C184.115 73.6406 182.995 74.6302 181.797 75.5156C180.651 76.401 179.557 77.2083 178.516 77.9375C177.37 78.7188 176.276 79.474 175.234 80.2031C174.193 80.8802 173.281 81.5052 172.5 82.0781C172.552 83.3802 172.786 84.474 173.203 85.3594C173.62 86.2448 174.141 86.974 174.766 87.5469C175.391 88.0677 176.094 88.4583 176.875 88.7188C177.708 88.9271 178.542 89.0312 179.375 89.0312C181.146 89.0312 182.995 88.4844 184.922 87.3906C186.849 86.2448 188.724 84.8906 190.547 83.3281C192.422 81.7135 194.141 80.0469 195.703 78.3281C197.318 76.6094 198.646 75.125 199.688 73.875C200.052 73.4583 200.417 73.224 200.781 73.1719C201.198 73.0677 201.51 73.1198 201.719 73.3281C201.979 73.4844 202.109 73.7969 202.109 74.2656C202.109 74.6823 201.927 75.1771 201.562 75.75ZM181.562 63.7188C180.938 63.7188 180.182 64.0312 179.297 64.6562C178.464 65.2812 177.63 66.1927 176.797 67.3906C175.964 68.5365 175.182 69.9688 174.453 71.6875C173.724 73.3542 173.177 75.2812 172.812 77.4688C173.438 77 174.115 76.5312 174.844 76.0625C175.573 75.5417 176.302 74.9948 177.031 74.4219C179.271 72.7031 180.833 71.1927 181.719 69.8906C182.604 68.5885 183.099 67.4688 183.203 66.5312C183.307 65.5417 183.203 64.8385 182.891 64.4219C182.578 63.9531 182.135 63.7188 181.562 63.7188Z" fill="black"/>
<path d="M261.176 41.2461C261.085 40.9727 261.358 40.2891 261.996 39.1953C262.634 38.0104 263.318 36.5977 264.047 34.957C264.867 33.2253 265.642 31.3112 266.371 29.2148C267.191 27.0273 267.738 24.7943 268.012 22.5156C268.376 20.237 268.376 17.9583 268.012 15.6797C267.647 13.401 266.69 11.2135 265.141 9.11719C264.229 8.02344 262.862 7.43099 261.039 7.33984C259.307 7.15755 257.302 7.43099 255.023 8.16016C252.836 8.79818 250.512 9.84635 248.051 11.3047C245.681 12.6719 243.493 14.3125 241.488 16.2266C239.483 18.0495 237.751 20.1003 236.293 22.3789C234.926 24.6576 234.151 26.9818 233.969 29.3516C233.786 31.2656 233.832 33.043 234.105 34.6836C234.47 36.3242 234.926 37.8281 235.473 39.1953C236.02 40.5625 236.612 41.8385 237.25 43.0234C237.888 44.2083 238.48 45.2565 239.027 46.168C239.757 47.444 240.896 48.8568 242.445 50.4062C243.995 51.9557 245.681 53.7331 247.504 55.7383C249.327 57.6523 251.15 59.8398 252.973 62.3008C254.796 64.7617 256.391 67.5417 257.758 70.6406C259.125 73.7396 260.082 77.2031 260.629 81.0312C261.176 84.8594 261.13 89.0977 260.492 93.7461C259.49 100.491 257.895 106.096 255.707 110.562C253.52 115.12 251.104 118.766 248.461 121.5C245.909 124.234 243.311 126.194 240.668 127.379C238.025 128.655 235.837 129.475 234.105 129.84C232.738 130.113 231.098 130.341 229.184 130.523C227.361 130.797 225.401 130.751 223.305 130.387C221.299 130.113 219.249 129.475 217.152 128.473C215.056 127.561 213.188 126.103 211.547 124.098C209.633 121.819 208.129 119.358 207.035 116.715C206.033 114.436 205.303 111.793 204.848 108.785C204.301 105.868 204.529 102.815 205.531 99.625C206.26 98.8047 207.035 98.0755 207.855 97.4375C208.676 96.7995 209.496 96.2526 210.316 95.7969C211.228 95.25 212.185 94.7487 213.188 94.293C214.372 93.9284 215.557 93.6094 216.742 93.3359C217.745 93.1536 218.793 93.0625 219.887 93.0625C221.072 92.9714 222.165 93.1081 223.168 93.4727C221.801 95.0221 220.844 96.4805 220.297 97.8477C219.932 98.5768 219.659 99.2148 219.477 99.7617C219.112 101.493 218.975 103.544 219.066 105.914C219.249 108.375 219.75 110.699 220.57 112.887C221.482 115.165 222.758 117.079 224.398 118.629C226.039 120.27 228.227 121.135 230.961 121.227C237.615 121.409 243.266 116.214 247.914 105.641C249.464 102.359 250.238 99.0326 250.238 95.6602C250.329 92.2878 249.919 89.0521 249.008 85.9531C248.188 82.8542 247.048 79.9831 245.59 77.3398C244.223 74.6055 242.81 72.2812 241.352 70.3672C239.893 68.4531 238.116 66.4023 236.02 64.2148C234.014 61.9362 232.009 59.4753 230.004 56.832C227.999 54.1888 226.176 51.3177 224.535 48.2188C222.986 45.1198 221.938 41.7474 221.391 38.1016C220.661 32.9974 221.117 28.349 222.758 24.1562C224.49 19.8724 226.768 16.1354 229.594 12.9453C232.51 9.75521 235.655 7.15755 239.027 5.15234C242.491 3.14714 245.544 1.87109 248.188 1.32422C262.862 -1.59245 272.478 0.86849 277.035 8.70703C278.949 11.7148 279.997 14.9049 280.18 18.2773C280.362 21.6497 280.134 24.7943 279.496 27.7109C278.949 30.5365 278.22 32.9518 277.309 34.957C276.488 36.8711 275.941 37.9193 275.668 38.1016C275.121 38.6484 274.255 39.2409 273.07 39.8789C271.885 40.5169 269.971 41.1094 267.328 41.6562C266.599 41.8385 265.87 41.9297 265.141 41.9297C264.503 41.9297 263.819 41.8841 263.09 41.793C262.361 41.7018 261.723 41.5195 261.176 41.2461ZM267.602 162.379C266.964 162.105 266.326 161.695 265.688 161.148C265.141 160.693 264.594 160.1 264.047 159.371C263.5 158.733 263.044 157.913 262.68 156.91C265.232 147.158 267.419 138.681 269.242 131.48C270.974 124.28 272.478 118.264 273.754 113.434C275.121 107.783 276.306 103.043 277.309 99.2148C278.22 95.569 279.132 91.9232 280.043 88.2773C280.772 85.0872 281.547 81.6693 282.367 78.0234C283.279 74.3776 284.099 70.9596 284.828 67.7695C285.74 64.2148 286.286 61.3893 286.469 59.293C286.651 57.1055 285.967 55.237 284.418 53.6875C285.512 52.776 286.605 52.0924 287.699 51.6367C288.884 51.0898 289.932 50.7253 290.844 50.543C291.846 50.2695 292.849 50.1784 293.852 50.2695C296.312 50.4518 297.816 51.2266 298.363 52.5938C299.001 53.9609 299.092 56.1484 298.637 59.1562C298.546 59.612 298.454 60.0221 298.363 60.3867C298.363 60.6602 298.363 60.9792 298.363 61.3438C299.639 59.8854 301.052 58.4727 302.602 57.1055C304.151 55.7383 305.701 54.5078 307.25 53.4141C308.891 52.3203 310.531 51.4544 312.172 50.8164C313.904 50.0872 315.544 49.7227 317.094 49.7227C319.19 49.7227 320.876 50.2695 322.152 51.3633C323.52 52.3659 324.568 53.7331 325.297 55.4648C326.026 57.1966 326.482 59.1562 326.664 61.3438C326.846 63.4401 326.892 65.5365 326.801 67.6328C326.71 69.9115 326.299 72.3268 325.57 74.8789C324.932 77.431 324.021 80.0286 322.836 82.6719C321.651 85.3151 320.284 87.9128 318.734 90.4648C317.185 93.0169 315.544 95.3867 313.812 97.5742C314.177 97.6654 314.405 97.7565 314.496 97.8477C314.587 97.8477 314.633 97.8932 314.633 97.9844C314.633 97.9844 314.678 98.0299 314.77 98.1211C314.952 98.1211 315.271 98.1211 315.727 98.1211C317.823 98.1211 319.965 97.5742 322.152 96.4805C324.34 95.3867 326.482 94.0195 328.578 92.3789C330.674 90.6471 332.68 88.7786 334.594 86.7734C336.599 84.7682 338.376 82.8542 339.926 81.0312C341.566 79.1172 342.934 77.431 344.027 75.9727C345.121 74.4232 345.941 73.3294 346.488 72.6914C347.217 71.7799 347.901 71.1875 348.539 70.9141C349.177 70.5495 349.678 70.5039 350.043 70.7773C350.408 71.0508 350.59 71.5977 350.59 72.418C350.59 73.1471 350.316 74.1042 349.77 75.2891C349.405 76.1094 348.63 77.431 347.445 79.2539C346.26 81.0768 344.802 83.1276 343.07 85.4062C341.339 87.6849 339.333 90.0547 337.055 92.5156C334.867 94.9766 332.543 97.2096 330.082 99.2148C327.621 101.22 325.069 102.861 322.426 104.137C319.874 105.504 317.367 106.188 314.906 106.188C313.721 106.188 312.764 106.142 312.035 106.051C311.306 105.96 310.668 105.777 310.121 105.504C309.665 105.322 309.21 105.094 308.754 104.82C308.298 104.638 307.751 104.41 307.113 104.137C305.473 105.413 303.786 106.37 302.055 107.008C300.323 107.737 298.637 108.102 296.996 108.102C295.447 108.102 294.079 107.828 292.895 107.281C291.801 106.826 290.889 106.142 290.16 105.23C289.431 104.41 288.839 103.499 288.383 102.496C287.927 101.402 287.562 100.354 287.289 99.3516C287.198 99.7161 287.107 100.035 287.016 100.309C287.016 100.582 286.97 100.947 286.879 101.402C285.785 105.777 284.646 110.836 283.461 116.578C282.458 121.5 281.228 127.47 279.77 134.488C278.402 141.598 276.944 149.664 275.395 158.688C274.848 161.148 273.891 162.561 272.523 162.926C271.065 163.29 269.424 163.108 267.602 162.379ZM292.621 77.6133C292.165 79.1628 291.664 80.9857 291.117 83.082C290.661 85.0872 290.115 87.5026 289.477 90.3281C290.206 89.7812 291.026 89.3711 291.938 89.0977C292.849 88.8242 293.76 88.6875 294.672 88.6875C295.674 88.6875 296.951 89.2344 298.5 90.3281C300.049 91.3307 301.918 92.4245 304.105 93.6094C305.473 91.9688 306.885 90.1458 308.344 88.1406C309.893 86.0443 311.26 83.9023 312.445 81.7148C313.721 79.5273 314.77 77.2943 315.59 75.0156C316.501 72.737 317.003 70.5495 317.094 68.4531C317.276 65.7188 316.957 63.5768 316.137 62.0273C315.316 60.4779 313.949 59.7031 312.035 59.7031C309.21 59.7031 306.111 61.3893 302.738 64.7617C299.457 68.043 296.085 72.3268 292.621 77.6133ZM381.078 82.2617C380.167 85.7253 378.936 88.9609 377.387 91.9688C375.837 94.9766 373.969 97.5742 371.781 99.7617C369.685 101.949 367.27 103.635 364.535 104.82C361.892 106.096 358.975 106.734 355.785 106.734C352.048 106.734 349.086 105.914 346.898 104.273C344.802 102.724 343.207 100.764 342.113 98.3945C341.111 96.0247 340.518 93.4271 340.336 90.6016C340.062 87.776 339.926 85.1328 339.926 82.6719C339.926 80.9401 340.154 79.026 340.609 76.9297C340.974 74.8333 341.521 72.6914 342.25 70.5039C342.979 68.3164 343.891 66.1289 344.984 63.9414C346.169 61.7539 347.536 59.7487 349.086 57.9258C349.633 56.3763 350.453 55.0091 351.547 53.8242C352.732 52.6393 354.053 51.6823 355.512 50.9531C357.061 50.1328 358.702 49.5404 360.434 49.1758C362.165 48.7201 363.852 48.4922 365.492 48.4922C365.766 48.4922 365.993 48.5378 366.176 48.6289C366.449 48.7201 366.723 48.8112 366.996 48.9023C368.181 48.9935 369.639 49.4492 371.371 50.2695C373.194 51.0898 374.926 52.3203 376.566 53.9609C378.298 55.6016 379.757 57.6979 380.941 60.25C382.126 62.7109 382.719 65.7188 382.719 69.2734C382.719 70.0026 382.673 70.9141 382.582 72.0078C382.491 73.0104 382.4 73.8763 382.309 74.6055C384.405 73.7852 386.592 72.7826 388.871 71.5977C391.15 70.4128 393.337 69.1823 395.434 67.9062C397.621 66.5391 399.626 65.1719 401.449 63.8047C403.272 62.4375 404.73 61.207 405.824 60.1133C406.736 59.293 407.51 58.8372 408.148 58.7461C408.786 58.6549 409.242 58.8372 409.516 59.293C409.789 59.7487 409.835 60.3867 409.652 61.207C409.47 62.0273 408.969 62.9388 408.148 63.9414C407.693 64.4883 406.508 65.582 404.594 67.2227C402.771 68.8633 400.583 70.6406 398.031 72.5547C395.479 74.4688 392.699 76.3372 389.691 78.1602C386.684 79.9831 383.812 81.3503 381.078 82.2617ZM357.973 61.4805C357.699 62.3008 357.562 63.1667 357.562 64.0781C357.562 65.5365 357.654 67.0859 357.836 68.7266C358.018 70.276 358.474 71.6888 359.203 72.9648C359.932 74.2409 361.072 75.3346 362.621 76.2461C364.262 77.0664 366.495 77.4766 369.32 77.4766C369.776 77.4766 370.232 77.4766 370.688 77.4766C371.143 77.3854 371.599 77.2943 372.055 77.2031C372.328 76.0182 372.556 74.9701 372.738 74.0586C373.012 73.056 373.148 72.1901 373.148 71.4609C373.331 69.7292 373.331 67.9518 373.148 66.1289C372.966 64.306 372.602 62.6654 372.055 61.207C371.599 59.6576 370.961 58.4271 370.141 57.5156C369.411 56.513 368.5 56.0117 367.406 56.0117C365.674 56.0117 363.988 56.513 362.348 57.5156C360.798 58.4271 359.34 59.7487 357.973 61.4805ZM349.223 85.543C349.223 87.1836 349.314 88.8242 349.496 90.4648C349.678 92.0143 350.043 93.4271 350.59 94.7031C351.137 95.888 351.866 96.8906 352.777 97.7109C353.689 98.4401 354.874 98.8047 356.332 98.8047C357.973 98.8047 359.477 98.4401 360.844 97.7109C362.211 96.8906 363.441 95.888 364.535 94.7031C365.629 93.4271 366.586 92.0143 367.406 90.4648C368.318 88.8242 369.092 87.138 369.73 85.4062C369.092 85.4974 368.454 85.5885 367.816 85.6797C367.27 85.6797 366.632 85.6797 365.902 85.6797C362.439 85.6797 359.431 84.6771 356.879 82.6719C354.418 80.5755 352.504 77.9323 351.137 74.7422C350.59 76.6562 350.134 78.5247 349.77 80.3477C349.405 82.1706 349.223 83.9023 349.223 85.543ZM446.156 69.4102C446.521 68.8633 446.977 68.5443 447.523 68.4531C448.161 68.2708 448.663 68.3164 449.027 68.5898C449.392 68.8633 449.574 69.319 449.574 69.957C449.665 70.5951 449.438 71.4609 448.891 72.5547C447.068 76.0182 444.652 79.7552 441.645 83.7656C438.728 87.776 435.629 91.5586 432.348 95.1133C429.066 98.5768 425.876 101.448 422.777 103.727C419.678 106.005 417.081 107.145 414.984 107.145C411.977 107.145 409.47 106.552 407.465 105.367C405.46 104.182 403.865 102.724 402.68 100.992C401.586 99.2604 400.811 97.3919 400.355 95.3867C399.9 93.2904 399.763 91.3763 399.945 89.6445C400.036 88.1862 400.355 85.5885 400.902 81.8516C401.449 78.0234 402.178 73.6484 403.09 68.7266C404.001 63.7135 405.004 58.3815 406.098 52.7305C407.283 46.9883 408.513 41.474 409.789 36.1875C408.24 36.3698 406.69 36.5521 405.141 36.7344C403.591 36.9167 402.178 37.0078 400.902 37.0078C397.986 37.0078 395.251 36.6888 392.699 36.0508C390.056 35.3216 388.096 34.638 386.82 34C386.091 33.6354 385.772 33.1341 385.863 32.4961C385.954 31.7669 386.228 31.0833 386.684 30.4453C387.139 29.7161 387.732 29.1237 388.461 28.668C389.099 28.1211 389.691 27.8477 390.238 27.8477C391.97 28.0299 393.839 28.2122 395.844 28.3945C397.849 28.4857 400.036 28.4857 402.406 28.3945C404.138 28.3034 405.779 28.1667 407.328 27.9844C408.969 27.8021 410.564 27.5742 412.113 27.3008C413.298 22.9258 414.438 19.1432 415.531 15.9531C416.716 12.6719 417.764 10.3932 418.676 9.11719C418.949 8.66146 419.542 8.29688 420.453 8.02344C421.456 7.65885 422.504 7.43099 423.598 7.33984C424.691 7.15755 425.74 7.15755 426.742 7.33984C427.745 7.43099 428.474 7.75 428.93 8.29688C429.385 9.02604 429.568 10.8945 429.477 13.9023C429.385 16.9102 428.884 20.7383 427.973 25.3867C431.801 25.3867 435.173 25.6146 438.09 26.0703C441.098 26.4349 443.65 26.8906 445.746 27.4375C447.842 27.8932 449.529 28.3945 450.805 28.9414C452.081 29.3971 453.038 29.7161 453.676 29.8984C454.314 30.0807 454.633 30.5365 454.633 31.2656C454.724 31.9948 454.587 32.7695 454.223 33.5898C453.949 34.319 453.448 34.957 452.719 35.5039C451.99 36.0508 451.169 36.2331 450.258 36.0508C449.346 35.9596 448.298 35.7773 447.113 35.5039C446.02 35.2305 444.652 35.0026 443.012 34.8203C441.462 34.638 439.594 34.4557 437.406 34.2734C435.219 34.0911 432.667 34 429.75 34C429.203 34 428.565 34.0456 427.836 34.1367C427.198 34.1367 426.514 34.1367 425.785 34.1367C425.421 35.5951 425.056 37.0534 424.691 38.5117C424.418 39.8789 424.008 41.3372 423.461 42.8867C422.276 46.5326 420.909 50.4974 419.359 54.7812C417.992 58.5182 416.352 62.8021 414.438 67.6328C412.523 72.4635 410.382 77.6133 408.012 83.082C407.465 87.0013 407.51 90.0091 408.148 92.1055C408.878 94.1107 409.743 95.569 410.746 96.4805C411.931 97.4831 413.389 98.0299 415.121 98.1211C416.488 98.3034 418.129 97.8477 420.043 96.7539C422.048 95.569 424.099 94.0195 426.195 92.1055C428.292 90.1914 430.388 88.0951 432.484 85.8164C434.672 83.5378 436.677 81.3047 438.5 79.1172C440.323 76.9297 441.918 74.9701 443.285 73.2383C444.652 71.4154 445.609 70.1393 446.156 69.4102Z" fill="black"/>
</svg>
